<?xml version="1.0" encoding="UTF-8" standalone="no"?>
<!-- Created with Inkscape (http://www.inkscape.org/) -->

<svg
   xmlns:dc="http://purl.org/dc/elements/1.1/"
   xmlns:cc="http://creativecommons.org/ns#"
   xmlns:rdf="http://www.w3.org/1999/02/22-rdf-syntax-ns#"
   xmlns:svg="http://www.w3.org/2000/svg"
   xmlns="http://www.w3.org/2000/svg"
   xmlns:xlink="http://www.w3.org/1999/xlink"
   xmlns:sodipodi="http://sodipodi.sourceforge.net/DTD/sodipodi-0.dtd"
   xmlns:inkscape="http://www.inkscape.org/namespaces/inkscape"
   width="544.23877"
   height="44.227379"
   id="svg2"
   version="1.1"
   inkscape:version="0.48.4 r9939"
   sodipodi:docname="logo.svg">
  <defs
     id="defs4" />
  <sodipodi:namedview
     id="base"
     pagecolor="#ffffff"
     bordercolor="#666666"
     borderopacity="1.0"
     inkscape:pageopacity="0.0"
     inkscape:pageshadow="2"
     inkscape:zoom="2.8284271"
     inkscape:cx="224.8923"
     inkscape:cy="51.904979"
     inkscape:document-units="px"
     inkscape:current-layer="layer1"
     showgrid="false"
     inkscape:window-width="2756"
     inkscape:window-height="1243"
     inkscape:window-x="425"
     inkscape:window-y="155"
     inkscape:window-maximized="0"
     fit-margin-top="0"
     fit-margin-left="0"
     fit-margin-right="0"
     fit-margin-bottom="0" />
  <metadata
     id="metadata7">
    <rdf:RDF>
      <cc:Work
         rdf:about="">
        <dc:format>image/svg+xml</dc:format>
        <dc:type
           rdf:resource="http://purl.org/dc/dcmitype/StillImage" />
        <dc:title />
      </cc:Work>
    </rdf:RDF>
  </metadata>
  <g
     inkscape:groupmode="layer"
     id="layer2"
     inkscape:label="Typography"
     style="display:none"
     transform="translate(206.90929,1.4050322)">
    <g
       id="g3910">
      <path
         inkscape:connector-curvature="0"
         id="path3872"
         d="m 3.7946429,10.710395 156.7857171,0"
         style="fill:none;stroke:#000000;stroke-width:1px;stroke-linecap:butt;stroke-linejoin:miter;stroke-opacity:1" />
      <path
         inkscape:connector-curvature="0"
         id="path3872-6"
         d="m 3.6552959,35.734302 156.7857141,0"
         style="fill:none;stroke:#000000;stroke-width:1px;stroke-linecap:butt;stroke-linejoin:miter;stroke-opacity:1" />
      <path
         inkscape:connector-curvature="0"
         id="path3872-6-8"
         d="m -10.35714,23.222461 156.78571,0"
         style="fill:none;stroke:#000000;stroke-width:1px;stroke-linecap:butt;stroke-linejoin:miter;stroke-opacity:1" />
    </g>
  </g>
  <g
     inkscape:label="Layer 1"
     inkscape:groupmode="layer"
     id="layer1"
     transform="translate(206.90929,1.4050322)">
    <path
       style="fill:none;stroke:#009900;stroke-width:5;stroke-linecap:round;stroke-linejoin:round;stroke-miterlimit:4;stroke-opacity:1;stroke-dasharray:none"
       d="m 14.047838,32.727592 0,-19.064695 19.062499,19.064695 0,-19.064695"
       id="path2996"
       inkscape:connector-curvature="0"
       sodipodi:nodetypes="cccc" />
    <path
       style="font-size:medium;font-style:normal;font-variant:normal;font-weight:normal;font-stretch:normal;text-indent:0;text-align:start;text-decoration:none;line-height:normal;letter-spacing:normal;word-spacing:normal;text-transform:none;direction:ltr;block-progression:tb;writing-mode:lr-tb;text-anchor:start;baseline-shift:baseline;color:#000000;fill:#009900;fill-opacity:1;stroke:none;stroke-width:5;marker:none;visibility:visible;display:inline;overflow:visible;enable-background:accumulate;font-family:Sans;-inkscape-font-specification:Sans"
       d="M 44.6875,11.1875 44,12.46875 38.6875,22.125 38,23.34375 38.6875,24.5625 44,33.90625 l 0.71875,1.28125 1.46875,0 10.875,0 1.5625,0 0.6875,-1.40625 3.96875,-8 1.78125,-3.625 -4.03125,0 L 50.875,22.1875 c -1.320782,-0.01868 -2.535605,1.179086 -2.535605,2.5 0,1.320914 1.214823,2.518679 2.535605,2.5 L 57,27.15625 l -1.5,3.03125 -7.875,0 -3.90625,-6.875 3.9375,-7.125 8.377221,0 1.953125,4.007812 5.03125,0 -3.171875,-7.601562 -0.6875,-1.40625 -1.5625,0 -11.408471,0 z"
       id="path2996-0"
       inkscape:connector-curvature="0"
       sodipodi:nodetypes="cccccccccccccccscccccccccccccc" />
    <path
       style="font-size:medium;font-style:normal;font-variant:normal;font-weight:normal;font-stretch:normal;text-indent:0;text-align:start;text-decoration:none;line-height:normal;letter-spacing:normal;word-spacing:normal;text-transform:none;direction:ltr;block-progression:tb;writing-mode:lr-tb;text-anchor:start;baseline-shift:baseline;color:#000000;fill:#009900;fill-opacity:1;stroke:none;stroke-width:5;marker:none;visibility:visible;display:inline;overflow:visible;enable-background:accumulate;font-family:Sans;-inkscape-font-specification:Sans"
       d="m 70.013782,11.15625 c -1.308989,0.01639 -2.485084,1.222261 -2.46875,2.53125 l 0,6.514509 5,0 0,-6.514509 c 0.01659,-1.329821 -1.201429,-2.547843 -2.53125,-2.53125 z"
       id="path2996-0-5"
       inkscape:connector-curvature="0"
       sodipodi:nodetypes="cccccc" />
    <use
       x="0"
       y="0"
       xlink:href="#path2996"
       id="use3820"
       transform="matrix(-1,0,0,1,111.13905,0.04841623)"
       width="744.09448"
       height="1052.3622" />
    <g
       id="g3920"
       transform="translate(0.10586251,0.33010228)">
      <path
         sodipodi:nodetypes="cc"
         inkscape:connector-curvature="0"
         id="path2996-1"
         d="m 104.90935,13.374209 19.08481,19.017856"
         style="fill:none;stroke:#009900;stroke-width:5;stroke-linecap:round;stroke-linejoin:round;stroke-miterlimit:4;stroke-opacity:1;stroke-dasharray:none" />
      <use
         height="1052.3622"
         width="744.09448"
         transform="matrix(-1,0,0,1,228.92583,0)"
         id="use3851"
         xlink:href="#path2996-1"
         y="0"
         x="0" />
    </g>
    <path
       style="font-size:medium;font-style:normal;font-variant:normal;font-weight:normal;font-stretch:normal;text-indent:0;text-align:start;text-decoration:none;line-height:normal;letter-spacing:normal;word-spacing:normal;text-transform:none;direction:ltr;block-progression:tb;writing-mode:lr-tb;text-anchor:start;baseline-shift:baseline;color:#000000;fill:#009900;fill-opacity:1;stroke:none;stroke-width:5;marker:none;visibility:visible;display:inline;overflow:visible;enable-background:accumulate;font-family:Sans;-inkscape-font-specification:Sans"
       d="m 70.013782,35.204069 c -1.308989,-0.01639 -2.485084,-1.222261 -2.46875,-2.53125 l 0,-10.464363 5,0 0,10.464363 c 0.01659,1.329821 -1.201429,2.547843 -2.53125,2.53125 z"
       id="path2996-0-5-1"
       inkscape:connector-curvature="0"
       sodipodi:nodetypes="cccccc" />
    <g
       transform="matrix(0.50089356,0,0,0.50089356,167.87316,0.67308491)"
       id="g3096">
      <title
         id="title3098">Layer 1</title>
      <g
         id="svg_1">
        <g
           id="svg_2">
          <g
             id="svg_3">
            <path
               style="fill:#2c3c69"
               inkscape:connector-curvature="0"
               id="svg_4"
               d="m 76.621002,68.878998 0,-31.406998 7.629997,0 0,24.796997 12.153999,0 0,6.609001 -19.783997,0 0,9.99e-4 z" />
            <path
               style="fill:#2c3c69"
               inkscape:connector-curvature="0"
               id="svg_5"
               d="m 121.547,58.098999 c 0,0.295998 0,0.592003 0,0.888 0,0.295997 -0.015,0.576004 -0.044,0.843002 l -16.01301,0 c 0.059,0.620995 0.244,1.182999 0.555,1.685997 0.311,0.502998 0.71,0.938004 1.197,1.308998 0.488,0.370003 1.035,0.658005 1.642,0.864006 0.605,0.208 1.234,0.310997 1.885,0.310997 1.153,0 2.13,-0.213997 2.928,-0.642998 0.799,-0.429001 1.449,-0.983002 1.952,-1.664001 l 5.05699,3.194 c -1.03498,1.507996 -2.40199,2.668999 -4.10299,3.482002 -1.701,0.811996 -3.676,1.219994 -5.922,1.219994 -1.657,0 -3.224,-0.259995 -4.702,-0.775993 -1.479,-0.518005 -2.772,-1.271004 -3.882,-2.263 -1.108,-0.990005 -1.981,-2.210007 -2.616996,-3.659004 -0.635994,-1.448997 -0.953003,-3.104996 -0.953003,-4.969002 0,-1.802994 0.309998,-3.437996 0.931,-4.900997 0.620999,-1.463001 1.463999,-2.706001 2.528999,-3.726002 1.064,-1.021 2.32,-1.811996 3.771,-2.373997 1.448,-0.561001 3.016,-0.843002 4.701,-0.843002 1.626,0 3.12,0.274002 4.48,0.820999 1.36,0.546997 2.528,1.338001 3.505,2.373001 0.976,1.035 1.73599,2.292 2.284,3.771 0.546,1.478001 0.819,3.165001 0.819,5.056 z m -6.698,-2.794998 c 0,-1.153 -0.362,-2.144001 -1.087,-2.972 -0.725,-0.827 -1.812,-1.242001 -3.26,-1.242001 -0.71,0 -1.36,0.111 -1.952,0.333 -0.59199,0.222 -1.108,0.525002 -1.553,0.909 -0.443,0.384998 -0.798,0.835999 -1.064,1.354 -0.266,0.517998 -0.414,1.057999 -0.443,1.618 l 9.359,0 z" />
            <path
               style="fill:#2c3c69"
               inkscape:connector-curvature="0"
               id="svg_6"
               d="m 133.168,52.200001 0,8.461002 c 0,1.038994 0.2,1.816994 0.60001,2.337997 0.39799,0.519997 1.11499,0.778 2.151,0.778 0.35399,0 0.73098,-0.028 1.13099,-0.089 0.39901,-0.05901 0.73101,-0.147003 0.998,-0.266006 l 0.089,5.323006 c -0.50299,0.176994 -1.13899,0.332001 -1.90699,0.465996 -0.76999,0.133003 -1.538,0.199005 -2.307,0.199005 -1.479,0 -2.722,-0.186005 -3.727,-0.556007 C 129.19,68.484002 128.384,67.949998 127.77901,67.252 127.172,66.556001 126.73599,65.725999 126.47,64.762002 126.203,63.799005 126.071,62.724 126.071,61.538003 l 0,-9.338001 -3.549,0 0,-5.412003 3.504,0 0,-5.810997 7.142,0 0,5.810997 5.19,0 0,5.412003 -5.19,0 z" />
            <path
               style="fill:#2c3c69"
               inkscape:connector-curvature="0"
               id="svg_7"
               d="m 161.91299,53.307999 c -0.59201,-0.560997 -1.28601,-1.034 -2.085,-1.418999 -0.79801,-0.383999 -1.64099,-0.577 -2.528,-0.577 -0.681,0 -1.30899,0.133999 -1.885,0.398998 -0.57699,0.267002 -0.865,0.726002 -0.865,1.375 0,0.621002 0.317,1.064003 0.953,1.331001 0.636,0.266998 1.664,0.562 3.08299,0.887001 0.82801,0.177998 1.664,0.43 2.50701,0.754997 0.843,0.324997 1.604,0.754005 2.28399,1.286003 0.68001,0.531998 1.22701,1.182999 1.64202,1.951996 0.41299,0.769005 0.62098,1.686005 0.62098,2.75 0,1.391006 -0.28099,2.565002 -0.84298,3.526001 -0.56201,0.960999 -1.29401,1.737 -2.19602,2.329002 -0.902,0.592002 -1.91499,1.019997 -3.03799,1.286003 -1.12399,0.266998 -2.248,0.398994 -3.371,0.398994 -1.80499,0 -3.571,-0.287994 -5.302,-0.864998 C 149.161,68.146002 147.719,67.294996 146.566,66.170995 l 4.08099,-4.303001 c 0.649,0.710007 1.448,1.302002 2.395,1.774002 0.946,0.473999 1.952,0.709999 3.017,0.709999 0.592,0 1.176,-0.140999 1.752,-0.421997 0.577,-0.279999 0.86501,-0.776001 0.86501,-1.485001 0,-0.681 -0.35401,-1.182999 -1.06401,-1.509003 -0.71,-0.324997 -1.818,-0.664993 -3.327,-1.020996 -0.769,-0.177002 -1.53799,-0.413002 -2.30699,-0.709 -0.77001,-0.295998 -1.457,-0.694 -2.06202,-1.197998 -0.60598,-0.502007 -1.10199,-1.123001 -1.48599,-1.863007 -0.384,-0.737995 -0.576,-1.625996 -0.576,-2.660995 0,-1.331001 0.28,-2.462002 0.843,-3.394001 0.562,-0.931999 1.286,-1.692001 2.174,-2.284 0.88701,-0.591999 1.87001,-1.027 2.949,-1.308998 1.079,-0.281998 2.151,-0.422001 3.217,-0.422001 1.655,0 3.274,0.259998 4.856,0.776001 1.582,0.517998 2.921,1.293999 4.015,2.328999 l -3.995,4.127998 z" />
            <path
               style="fill:#2c3c69"
               inkscape:connector-curvature="0"
               id="svg_8"
               d="m 179.56799,68.878998 0,-31.406998 21.114,0 0,6.388 -13.795,0 0,5.944 13.041,0 0,6.077 -13.041,0 0,6.521 14.594,0 0,6.476997 -21.913,0 z" />
            <path
               style="fill:#2c3c69"
               inkscape:connector-curvature="0"
               id="svg_9"
               d="m 220.675,68.878998 0,-12.065994 c 0,-0.621002 -0.053,-1.212002 -0.155,-1.774002 -0.104,-0.562 -0.274,-1.057003 -0.511,-1.486 -0.237,-0.428001 -0.569,-0.769001 -0.998,-1.021 -0.429,-0.25 -0.96899,-0.377003 -1.619,-0.377003 -0.65001,0 -1.22,0.127003 -1.70799,0.377003 -0.487,0.251999 -0.89501,0.599998 -1.22001,1.042999 -0.32499,0.443001 -0.569,0.953999 -0.731,1.529999 -0.16299,0.577 -0.244,1.175999 -0.244,1.797001 l 0,11.976997 -7.319,0 0,-22.091 7.05301,0 0,3.061001 0.089,0 c 0.26699,-0.473 0.613,-0.938 1.043,-1.396 0.428,-0.459 0.932,-0.850998 1.50801,-1.175999 0.57699,-0.325001 1.20498,-0.591999 1.88598,-0.799 0.68001,-0.206001 1.40401,-0.311001 2.17301,-0.311001 1.479,0 2.735,0.266998 3.77099,0.799 1.036,0.532002 1.87001,1.220001 2.50701,2.062 0.636,0.842999 1.09401,1.812 1.375,2.904999 0.28,1.095001 0.421,2.189003 0.421,3.283001 l 0,13.661999 -7.321,0 0,9.99e-4 z" />
            <path
               style="fill:#2c3c69"
               inkscape:connector-curvature="0"
               id="svg_10"
               d="m 246.71301,53.929001 c -0.41501,-0.532001 -0.977,-0.959999 -1.686,-1.285999 -0.70999,-0.325001 -1.43601,-0.488003 -2.174,-0.488003 -0.77,0 -1.464,0.155003 -2.085,0.466 -0.62101,0.310997 -1.153,0.726002 -1.59701,1.242001 -0.44299,0.518002 -0.79199,1.117001 -1.04299,1.797001 -0.251,0.681004 -0.377,1.404003 -0.377,2.174 0,0.768997 0.11799,1.493004 0.35499,2.173004 0.23601,0.681 0.58301,1.279999 1.04201,1.796997 0.45799,0.517998 1.005,0.924995 1.642,1.220001 0.636,0.295998 1.35299,0.443001 2.151,0.443001 0.73801,0 1.47099,-0.139999 2.19501,-0.421005 0.72401,-0.281006 1.30899,-0.687996 1.75198,-1.220001 l 4.03702,4.924004 c -0.91703,0.887001 -2.10102,1.582001 -3.54901,2.084999 -1.44899,0.501999 -2.987,0.753998 -4.61299,0.753998 -1.74501,0 -3.37401,-0.266998 -4.88701,-0.798996 -1.512,-0.531998 -2.82601,-1.308998 -3.941,-2.329002 -1.11599,-1.019997 -1.99299,-2.253998 -2.63299,-3.702995 -0.64,-1.448997 -0.959,-3.090004 -0.959,-4.924004 0,-1.804001 0.31898,-3.431 0.959,-4.880001 0.64,-1.447998 1.51699,-2.683998 2.63299,-3.703999 1.11499,-1.021 2.43,-1.804001 3.941,-2.351002 1.513,-0.546997 3.127,-0.820999 4.843,-0.820999 0.798,0 1.589,0.074 2.373,0.223 0.783,0.147003 1.53699,0.348 2.26199,0.599003 0.72501,0.251003 1.39002,0.562 1.996,0.931999 0.60599,0.369999 1.13202,0.776001 1.57502,1.219997 l -4.21201,4.877003 z" />
            <path
               style="fill:#2c3c69"
               inkscape:connector-curvature="0"
               id="svg_11"
               d="m 268.03201,52.776001 c -0.32599,-0.089 -0.64401,-0.146999 -0.95401,-0.177002 -0.30999,-0.03 -0.61398,-0.045 -0.90899,-0.045 -0.97599,0 -1.797,0.177998 -2.46201,0.530998 -0.66498,0.354 -1.19699,0.781002 -1.59698,1.283001 -0.39902,0.500999 -0.68802,1.047001 -0.86503,1.636997 -0.177,0.589996 -0.26599,1.105003 -0.26599,1.548004 l 0,11.324997 -7.27499,0 0,-22.063999 7.009,0 0,3.194 0.089,0 c 0.56201,-1.132 1.35901,-2.055 2.396,-2.77 1.03402,-0.715 2.23202,-1.071999 3.59302,-1.071999 0.29498,0 0.58398,0.016 0.86499,0.045 0.27999,0.029 0.51001,0.074 0.68801,0.133003 L 268.03201,52.776 z" />
            <path
               style="fill:#2c3c69"
               inkscape:connector-curvature="0"
               id="svg_12"
               d="m 285.12201,72.206001 c -0.44299,1.153 -0.939,2.181 -1.48599,3.083 -0.547,0.901001 -1.19702,1.669998 -1.95102,2.306999 -0.754,0.636002 -1.642,1.114998 -2.66199,1.441002 -1.01999,0.324997 -2.22601,0.487999 -3.61499,0.487999 -0.681,0 -1.38299,-0.045 -2.10602,-0.134003 -0.72598,-0.089 -1.354,-0.207001 -1.88598,-0.353996 L 272.215,72.916 c 0.354,0.116997 0.746,0.213997 1.17602,0.288002 0.42798,0.073 0.81998,0.110001 1.17499,0.110001 1.12399,0 1.93701,-0.259003 2.44,-0.776001 0.50199,-0.518005 0.931,-1.249001 1.28601,-2.195 l 0.70999,-1.818001 -9.22699,-21.736 8.073,0 4.92398,14.195 0.133,0 4.392,-14.195 7.71802,0 -9.89301,25.417 z" />
            <path
               style="fill:#2c3c69"
               inkscape:connector-curvature="0"
               id="svg_13"
               d="m 321.496,57.745003 c 0,1.537994 -0.237,3.016998 -0.70999,4.435997 -0.474,1.419998 -1.16101,2.668999 -2.06201,3.748001 -0.90201,1.080002 -2.004,1.945 -3.30499,2.596001 -1.30201,0.649002 -2.78,0.975998 -4.43702,0.975998 -1.35998,0 -2.64599,-0.273003 -3.85901,-0.82 -1.21301,-0.546997 -2.15799,-1.293999 -2.83898,-2.239998 l -0.088,0 0,13.085999 -7.27502,0 0,-32.739002 6.92001,0 0,2.706001 0.133,0 c 0.681,-0.887001 1.61899,-1.662998 2.81698,-2.328999 C 307.98801,46.5 309.39999,46.167 311.02701,46.167 c 1.59698,0 3.04498,0.311001 4.34698,0.931999 1.301,0.621002 2.40201,1.464001 3.305,2.528 0.90298,1.063999 1.59701,2.299999 2.08502,3.704002 0.488,1.404999 0.73199,2.876999 0.73199,4.414001 z m -7.05301,0 c 0,-0.709999 -0.11001,-1.403999 -0.332,-2.085003 -0.22201,-0.68 -0.548,-1.278999 -0.97699,-1.797001 -0.42901,-0.516998 -0.96902,-0.938 -1.61902,-1.264 -0.64999,-0.326 -1.40399,-0.487999 -2.26199,-0.487999 -0.828,0 -1.56799,0.162998 -2.21799,0.487999 -0.651,0.325001 -1.20602,0.754002 -1.664,1.285999 -0.45901,0.532001 -0.81302,1.139 -1.06402,1.818001 -0.25199,0.681004 -0.37699,1.375004 -0.37699,2.085003 0,0.709999 0.125,1.404999 0.37699,2.084999 0.251,0.681 0.60501,1.285995 1.06402,1.818001 0.45798,0.531998 1.013,0.961998 1.664,1.286995 0.64899,0.325005 1.38999,0.487 2.21799,0.487 0.85699,0 1.61099,-0.161995 2.26199,-0.487 0.651,-0.325005 1.19001,-0.754997 1.61902,-1.286995 0.42902,-0.531998 0.75498,-1.146004 0.97699,-1.841003 0.22101,-0.693001 0.332,-1.394997 0.332,-2.104996 z" />
            <path
               style="fill:#2c3c69"
               inkscape:connector-curvature="0"
               id="svg_14"
               d="m 333.11801,52.200001 0,8.461002 c 0,1.038994 0.20001,1.816994 0.60001,2.337997 0.39798,0.519997 1.11499,0.778 2.151,0.778 0.354,0 0.73099,-0.028 1.13098,-0.089 0.39902,-0.05901 0.73102,-0.147003 0.99802,-0.266006 l 0.089,5.323006 c -0.50299,0.176994 -1.139,0.332001 -1.90698,0.465996 -0.77002,0.133003 -1.53802,0.199005 -2.307,0.199005 -1.47901,0 -2.72202,-0.186005 -3.72702,-0.556007 -1.00599,-0.369995 -1.81199,-0.903999 -2.417,-1.601997 -0.60699,-0.695999 -1.043,-1.526001 -1.30899,-2.489998 C 326.15302,63.799005 326.021,62.724 326.021,61.538003 l 0,-9.338001 -3.54898,0 0,-5.412003 3.50399,0 0,-5.810997 7.142,0 0,5.810997 5.19,0 0,5.412003 -5.19,0 z" />
          </g>
        </g>
        <path
           style="fill:#2c3c69"
           inkscape:connector-curvature="0"
           id="svg_15"
           d="m 145.00999,36.869999 c -2.18299,0 -3.89199,1.573002 -3.89199,3.582001 0,2.116001 1.43899,3.536999 3.582,3.536999 0.183,0 0.35599,-0.017 0.51899,-0.05 -0.343,1.566002 -1.852,2.690002 -3.27799,2.915001 l -0.29001,0.046 0,3.376999 0.376,-0.036 c 1.73,-0.165001 3.439,-0.951 4.691,-2.157001 1.632,-1.572998 2.49501,-3.843998 2.49501,-6.568001 0,-2.691998 -1.76799,-4.646 -4.20301,-4.646 z" />
      </g>
      <g
         id="svg_16">
        <path
           style="fill:#f9a11d"
           inkscape:connector-curvature="0"
           id="svg_17"
           d="m 46.488998,37.568001 -8.039997,0 0,-4.128002 c 0,-3.296997 -2.683002,-5.979 -5.98,-5.979 -3.297001,0 -5.979,2.683002 -5.979,5.979 l 0,4.128002 -8.040001,0 0,-4.128002 c 0,-7.73 6.288998,-14.019999 14.02,-14.019999 7.731002,0 14.02,6.289 14.02,14.019999 l 0,4.128002 -0.001,0 z" />
      </g>
      <path
         style="fill:#2c3c69"
         inkscape:connector-curvature="0"
         id="svg_18"
         d="m 49.731998,37.568001 -34.524998,0 c -1.474001,0 -2.68,1.205997 -2.68,2.68 l 0,25.540001 c 0,1.473999 1.205999,2.68 2.68,2.68 l 34.524998,0 c 1.474003,0 2.68,-1.206001 2.68,-2.68 l 0,-25.540001 c 0,-1.474003 -1.205997,-2.68 -2.68,-2.68 z m -15.512997,16.769001 0,3.460995 c 0,0.966003 -0.784,1.749001 -1.749001,1.749001 -0.965001,0 -1.749001,-0.783997 -1.749001,-1.749001 l 0,-3.459995 c -1.076,-0.611 -1.803001,-1.764 -1.803001,-3.09 0,-1.962002 1.591,-3.552002 3.552002,-3.552002 1.961998,0 3.551998,1.591 3.551998,3.552002 0,1.325001 -0.727001,2.478001 -1.802998,3.089001 z" />
      <path
         style="fill:#f9a11d"
         inkscape:connector-curvature="0"
         id="svg_19"
         d="m 11.707001,33.759998 -8.331,0 c -1.351001,0 -2.446,-1.094997 -2.446,-2.445999 0,-1.351002 1.094999,-2.445999 2.446,-2.445999 l 8.331,0 c 1.351,0 2.445999,1.095001 2.445999,2.445999 0,1.350998 -1.096001,2.445999 -2.445999,2.445999 z" />
      <path
         style="fill:#f9a11d"
         inkscape:connector-curvature="0"
         id="svg_20"
         d="m 17.575001,20.655001 c -0.546001,0 -1.097,-0.182001 -1.552,-0.557001 l -6.59,-5.418999 C 8.39,13.820999 8.239001,12.280001 9.098,11.236 9.956,10.193001 11.497,10.042 12.541001,10.9 l 6.59,5.419001 c 1.042999,0.858 1.194,2.399 0.334999,3.442999 -0.483,0.589001 -1.184,0.893002 -1.890999,0.893002 z" />
      <path
         style="fill:#f9a11d"
         inkscape:connector-curvature="0"
         id="svg_21"
         d="m 32.469002,14.895 c -1.351002,0 -2.446003,-1.095001 -2.446003,-2.446001 l 0,-8.396999 c 0,-1.351 1.095001,-2.446 2.446003,-2.446 1.351002,0 2.445999,1.095 2.445999,2.446 l 0,8.396999 c 0,1.351 -1.095001,2.446001 -2.445999,2.446001 z" />
      <g
         id="svg_22">
        <g
           id="svg_23">
          <path
             style="fill:#f9a11d"
             inkscape:connector-curvature="0"
             id="svg_24"
             d="M 47.362999,20.655001 C 46.655998,20.655001 45.956001,20.351 45.472,19.761999 44.613998,18.719 44.764,17.177 45.806999,16.319 l 6.59,-5.419001 c 1.044003,-0.858 2.585003,-0.706999 3.442997,0.336 0.858002,1.042999 0.708,2.584999 -0.334999,3.443001 l -6.589996,5.418999 C 48.459999,20.472999 47.91,20.655 47.362999,20.655 z" />
        </g>
      </g>
      <path
         style="fill:#f9a11d"
         inkscape:connector-curvature="0"
         id="svg_25"
         d="m 61.563004,33.759998 -8.410004,0 c -1.351002,0 -2.445999,-1.094997 -2.445999,-2.445999 0,-1.351002 1.094997,-2.445999 2.445999,-2.445999 l 8.410004,0 c 1.350998,0 2.445999,1.095001 2.445999,2.445999 0,1.350998 -1.095001,2.445999 -2.445999,2.445999 z" />
    </g>
    <text
       xml:space="preserve"
       style="font-size:22.77350998px;font-style:normal;font-weight:normal;line-height:125%;letter-spacing:0px;word-spacing:0px;fill:#000000;fill-opacity:1;stroke:none;font-family:Sans"
       x="138.46513"
       y="29.884222"
       id="text3245"
       sodipodi:linespacing="125%"><tspan
         sodipodi:role="line"
         id="tspan3247"
         x="138.46513"
         y="29.884222"
         style="font-style:normal;font-variant:normal;font-weight:normal;font-stretch:normal;font-family:DejaVu Sans;-inkscape-font-specification:DejaVu Sans;fill:#333333;fill-opacity:1">+</tspan></text>
    <g
       id="g3593"
       transform="matrix(0.27487495,0,0,0.27487495,-206.90929,-1.4050322)">
      <g
         id="g3595">
        <path
           d="m 165.1,50.8 h 25.6 v 26 h 12.9 c 6,0 12.1,-1.1 17.8,-3 2.8,-0.9 5.9,-2.2 8.6,-3.9 -3.6,-4.7 -5.5,-10.6 -6,-16.4 -0.7,-7.9 0.9,-18.2 6.3,-24.4 l 2.7,-3.1 3.2,2.6 c 8.1,6.4 14.9,15.4 16.1,25.7 9.7,-2.8 21.1,-2.2 29.7,2.7 l 3.5,2 -1.9,3.6 c -7.2,14 -22.4,18.4 -37.2,17.6 -22.2,54.7 -70.4,80.7 -128.9,80.7 -30.2,0 -58,-11.2 -73.7,-37.8 l -0.3,-0.4 -2.3,-4.6 C 35.9,106.4 34.1,93.6 35.3,80.8 L 35.7,77 H 57.6 V 51 H 83.2 V 25.4 h 51.2 V 0 h 30.7 v 50.8 z"
           class="st0"
           id="outline_8_"
           inkscape:connector-curvature="0"
           style="fill:#3a4e55;fill-rule:evenodd" />
        <g
           id="body_colors_9_">
          <path
             id="path3599"
             d="m 248,60.4 c 1.7,-13.2 -8.3,-23.6 -14.5,-28.6 -7.1,8.2 -8.2,29.6 2.9,38.6 -6.2,5.5 -19.4,10.5 -32.9,10.5 H 39.6 c -1.3,13.9 1.2,26.8 6.8,37.8 l 1.9,3.4 c 1.2,2 2.5,3.9 3.9,5.8 l 0,0 c 6.7,0.4 13,0.6 18.6,0.5 0,0 0,0 0,0 11.2,-0.2 20.3,-1.6 27.2,-3.9 1,-0.4 2.1,0.2 2.5,1.2 0.4,1 -0.2,2.1 -1.2,2.5 -0.9,0.3 -1.9,0.6 -2.9,0.9 0,0 0,0 0,0 -5.4,1.5 -11.3,2.6 -18.8,3 0.4,0 -0.5,0.1 -0.5,0.1 -0.3,0 -0.6,0.1 -0.8,0.1 -3,0.2 -6.2,0.2 -9.4,0.2 -3.6,0 -7.1,-0.1 -11,-0.3 l -0.1,0.1 c 13.7,15.2 35,24.4 61.8,24.4 56.7,0 104.8,-24.9 126.1,-80.9 15.1,1.5 29.6,-2.3 36.2,-15.1 -10.5,-6.1 -24.1,-4.2 -31.9,-0.3 z"
             class="st1"
             inkscape:connector-curvature="0"
             style="fill:#08aada" />
          <path
             id="path3601"
             d="m 248,60.4 c 1.7,-13.2 -8.3,-23.6 -14.5,-28.6 -7.1,8.2 -8.2,29.6 2.9,38.6 -6.2,5.5 -19.4,10.5 -32.9,10.5 H 49.3 c -0.7,21.4 7.3,37.6 21.5,47.4 0,0 0,0 0,0 11.2,-0.2 20.3,-1.6 27.2,-3.9 1,-0.4 2.1,0.2 2.5,1.2 0.4,1 -0.2,2.1 -1.2,2.5 -0.9,0.3 -1.9,0.6 -2.9,0.9 0,0 0,0 0,0 -5.4,1.5 -11.8,2.7 -19.3,3.2 0,0 -0.2,-0.2 -0.2,-0.2 19.3,9.8 47.3,9.8 79.4,-2.4 36,-13.7 69.4,-39.8 92.8,-69.7 -0.4,0.1 -0.7,0.3 -1.1,0.5 z"
             class="st2"
             inkscape:connector-curvature="0"
             style="fill:#2bb8eb" />
          <path
             id="path3603"
             d="m 39.9,97.9 c 1,7.5 3.2,14.5 6.5,20.8 l 1.9,3.4 c 1.2,2 2.5,3.9 3.9,5.8 6.7,0.4 13,0.6 18.7,0.5 11.2,-0.2 20.3,-1.6 27.2,-3.9 1,-0.4 2.1,0.2 2.5,1.2 0.4,1 -0.2,2.1 -1.2,2.5 -0.9,0.3 -1.9,0.6 -2.9,0.9 0,0 0,0 0,0 -5.4,1.5 -11.7,2.6 -19.3,3.1 -0.3,0 -0.7,0 -1,0 -3,0.2 -6.1,0.3 -9.4,0.3 -3.6,0 -7.2,-0.1 -11.2,-0.3 13.7,15.2 35.2,24.4 62,24.4 48.5,0 90.8,-18.3 115.3,-58.6 h -193 z"
             class="st3"
             inkscape:connector-curvature="0"
             style="fill:#088cb9" />
          <path
             id="path3605"
             d="m 50.8,97.9 c 2.9,13.1 9.9,23.4 20,30.4 11.2,-0.2 20.3,-1.6 27.2,-3.9 1,-0.4 2.1,0.2 2.5,1.2 0.4,1 -0.2,2.1 -1.2,2.5 -0.9,0.3 -1.9,0.6 -2.9,0.9 0,0 0,0 0,0 -5.4,1.5 -11.9,2.6 -19.4,3.1 19.3,9.8 47.2,9.7 79.3,-2.5 19.4,-7.4 38.1,-18.4 54.8,-31.7 H 50.8 z"
             class="st4"
             inkscape:connector-curvature="0"
             style="fill:#069bc6" />
        </g>
        <g
           id="Containers_9_">
          <path
             id="path3608"
             d="m 80.4,56.8 h 1.8 V 75.1 H 80.4 V 56.8 z m -3.3,0 h 1.8 V 75.1 H 77.1 V 56.8 z m -3.4,0 h 1.8 V 75.1 H 73.7 V 56.8 z m -3.3,0 h 1.8 V 75.1 H 70.4 V 56.8 z m -3.4,0 h 1.8 V 75.1 H 67 V 56.8 z m -3.3,0 h 1.8 V 75.1 H 63.7 V 56.8 z M 61.9,55 H 84 V 77 H 61.9 V 55 z"
             class="st5"
             inkscape:connector-curvature="0"
             style="fill:#00acd2;fill-rule:evenodd" />
          <path
             id="path3610"
             d="m 106,31.4 h 1.8 V 49.7 H 106 V 31.4 z m -3.3,0 h 1.8 v 18.3 h -1.8 V 31.4 z m -3.4,0 h 1.8 V 49.7 H 99.3 V 31.4 z m -3.3,0 h 1.8 V 49.7 H 96 V 31.4 z m -3.4,0 h 1.8 V 49.7 H 92.6 V 31.4 z m -3.3,0 h 1.8 V 49.7 H 89.3 V 31.4 z m -1.8,-1.8 h 22.2 v 22 H 87.5 v -22 z"
             class="st5"
             inkscape:connector-curvature="0"
             style="fill:#00acd2;fill-rule:evenodd" />
          <path
             id="path3612"
             d="m 106,56.8 h 1.8 V 75.1 H 106 V 56.8 z m -3.3,0 h 1.8 v 18.3 h -1.8 V 56.8 z m -3.4,0 h 1.8 V 75.1 H 99.3 V 56.8 z m -3.3,0 h 1.8 V 75.1 H 96 V 56.8 z m -3.4,0 h 1.8 V 75.1 H 92.6 V 56.8 z m -3.3,0 h 1.8 V 75.1 H 89.3 V 56.8 z M 87.5,55 h 22.2 V 77 H 87.5 V 55 z"
             class="st6"
             inkscape:connector-curvature="0"
             style="fill:#26c2ee;fill-rule:evenodd" />
          <path
             id="path3614"
             d="m 131.6,56.8 h 1.8 v 18.3 h -1.8 V 56.8 z m -3.3,0 h 1.8 v 18.3 h -1.8 V 56.8 z m -3.4,0 h 1.8 v 18.3 h -1.8 V 56.8 z m -3.3,0 h 1.8 v 18.3 h -1.8 V 56.8 z m -3.4,0 h 1.8 v 18.3 h -1.8 V 56.8 z m -3.3,0 h 1.8 v 18.3 h -1.8 V 56.8 z M 113.1,55 h 22.2 V 77 H 113.1 V 55 z"
             class="st5"
             inkscape:connector-curvature="0"
             style="fill:#00acd2;fill-rule:evenodd" />
          <path
             id="path3616"
             d="m 131.6,31.4 h 1.8 v 18.3 h -1.8 V 31.4 z m -3.3,0 h 1.8 v 18.3 h -1.8 V 31.4 z m -3.4,0 h 1.8 v 18.3 h -1.8 V 31.4 z m -3.3,0 h 1.8 v 18.3 h -1.8 V 31.4 z m -3.4,0 h 1.8 v 18.3 h -1.8 V 31.4 z m -3.3,0 h 1.8 v 18.3 h -1.8 V 31.4 z m -1.8,-1.8 h 22.2 v 22 h -22.2 v -22 z"
             class="st6"
             inkscape:connector-curvature="0"
             style="fill:#26c2ee;fill-rule:evenodd" />
          <path
             id="path3618"
             d="m 157.2,56.8 h 1.8 v 18.3 h -1.8 V 56.8 z m -3.3,0 h 1.8 v 18.3 h -1.8 V 56.8 z m -3.4,0 h 1.8 v 18.3 h -1.8 V 56.8 z m -3.3,0 h 1.8 v 18.3 h -1.8 V 56.8 z m -3.4,0 h 1.8 v 18.3 h -1.8 V 56.8 z m -3.3,0 h 1.8 v 18.3 h -1.8 V 56.8 z M 138.7,55 h 22.2 V 77 H 138.7 V 55 z"
             class="st6"
             inkscape:connector-curvature="0"
             style="fill:#26c2ee;fill-rule:evenodd" />
          <path
             id="path3620"
             d="m 157.2,31.4 h 1.8 v 18.3 h -1.8 V 31.4 z m -3.3,0 h 1.8 v 18.3 h -1.8 V 31.4 z m -3.4,0 h 1.8 v 18.3 h -1.8 V 31.4 z m -3.3,0 h 1.8 v 18.3 h -1.8 V 31.4 z m -3.4,0 h 1.8 v 18.3 h -1.8 V 31.4 z m -3.3,0 h 1.8 v 18.3 h -1.8 V 31.4 z m -1.8,-1.8 h 22.2 v 22 h -22.2 v -22 z"
             class="st5"
             inkscape:connector-curvature="0"
             style="fill:#00acd2;fill-rule:evenodd" />
          <path
             id="path3622"
             d="m 157.2,6.1 h 1.8 v 18.3 h -1.8 V 6.1 z m -3.3,0 h 1.8 v 18.3 h -1.8 V 6.1 z m -3.4,0 h 1.8 v 18.3 h -1.8 V 6.1 z m -3.3,0 h 1.8 v 18.3 h -1.8 V 6.1 z m -3.4,0 h 1.8 v 18.3 h -1.8 V 6.1 z m -3.3,0 h 1.8 v 18.3 h -1.8 V 6.1 z m -1.8,-1.9 h 22.2 v 22 h -22.2 v -22 z"
             class="st6"
             inkscape:connector-curvature="0"
             style="fill:#26c2ee;fill-rule:evenodd" />
          <path
             id="path3624"
             d="m 182.8,56.8 h 1.8 v 18.3 h -1.8 V 56.8 z m -3.3,0 h 1.8 v 18.3 h -1.8 V 56.8 z m -3.4,0 h 1.8 v 18.3 h -1.8 V 56.8 z m -3.3,0 h 1.8 v 18.3 h -1.8 V 56.8 z m -3.4,0 h 1.8 v 18.3 h -1.8 V 56.8 z m -3.3,0 h 1.7 v 18.3 h -1.7 V 56.8 z M 164.2,55 h 22.2 V 77 H 164.2 V 55 z"
             class="st5"
             inkscape:connector-curvature="0"
             style="fill:#00acd2;fill-rule:evenodd" />
        </g>
        <path
           id="path3626"
           d="m 108.3,112.7 c 3.4,0 6.1,2.7 6.1,6.1 0,3.4 -2.7,6.1 -6.1,6.1 -3.4,0 -6.1,-2.7 -6.1,-6.1 -0.1,-3.4 2.7,-6.1 6.1,-6.1"
           class="st7"
           inkscape:connector-curvature="0"
           style="fill:#d4edf1;fill-rule:evenodd" />
        <path
           id="path3628"
           d="m 108.3,114.4 c 0.6,0 1.1,0.1 1.6,0.3 -0.5,0.3 -0.9,0.9 -0.9,1.5 0,1 0.8,1.8 1.8,1.8 0.7,0 1.3,-0.4 1.6,-0.9 0.2,0.5 0.3,1.1 0.3,1.7 0,2.4 -2,4.3 -4.4,4.3 -2.4,0 -4.4,-1.9 -4.4,-4.3 0,-2.5 1.9,-4.4 4.4,-4.4"
           class="st0"
           inkscape:connector-curvature="0"
           style="fill:#3a4e55;fill-rule:evenodd" />
        <path
           id="path3630"
           d="m 0,100.1 h 134.1 16.6 134.1 c -6.2,-1.6 -19.6,-3.7 -17.4,-11.7 -11.3,12.9 -38.5,9.1 -45.3,2.7 -7.6,11 -52.1,6.8 -55.2,-1.8 -9.6,11.1 -39.3,11.1 -48.8,0 -3.1,8.6 -47.6,12.7 -55.2,1.8 -6.9,6.4 -34,10.2 -45.3,-2.7 2,8 -11.4,10.1 -17.6,11.7"
           class="st0"
           inkscape:connector-curvature="0"
           style="fill:#3a4e55;fill-rule:evenodd" />
        <path
           id="path3632"
           d="M 124.5,156.4 C 109.3,149.3 101,139.6 96.4,129 c -5.6,1.6 -12.4,2.6 -20.3,3 -3,0.2 -6.1,0.2 -9.3,0.2 -3.8,0 -7.7,-0.1 -11.9,-0.3 13.9,13.8 31,24.4 62.7,24.6 2.3,0 4.6,0 6.9,-0.1 z"
           class="st8"
           inkscape:connector-curvature="0"
           style="fill:#c0dbe0" />
        <path
           id="path3634"
           d="m 102,138.8 c -2.1,-2.8 -4.1,-6.4 -5.6,-9.8 -5.6,1.6 -12.4,2.6 -20.3,3 5.5,3 13.2,5.6 25.9,6.8 z"
           class="st9"
           inkscape:connector-curvature="0"
           style="fill:#d4edf1" />
      </g>
      <path
         id="path3636"
         d="m 583.8,111.8 c 8.8,-7.4 17.5,-14.9 26.3,-22.4 3,-2.6 6.3,-5.2 9.2,-7.9 -2.4,-3 -6.3,-5.1 -9.7,-6.4 -6.8,-2.6 -13.5,-1.7 -19.8,1.9 -8.2,4.7 -11.7,12.1 -11.3,21.4 0.1,3.6 1.1,7.2 3.1,10.3 0.6,1.1 1.4,2.1 2.2,3.1 m 10.2,7 c 4.3,1.5 9.2,1.3 13.6,0.5 2.3,-1 8,-3.4 10.1,-3.1 l 0.3,0.1 0.3,0.1 c 1.3,0.6 2.5,1.5 3.2,2.8 1.5,3.1 0.8,6.1 -2.2,7.9 l -1,0.6 c -11.2,6.4 -23.1,5.5 -34.3,-0.5 -5.3,-2.9 -9.4,-7.1 -12.4,-12.3 l -0.7,-1.2 c -7.2,-12.3 -6.2,-25.3 1.9,-37.1 2.8,-4.1 6.5,-7.2 10.7,-9.6 l 1.6,-0.9 c 10.5,-6 21.8,-5.6 32.7,-0.3 5.8,2.8 10.5,7.1 13.8,12.7 l 0.6,1 c 2.4,4.1 -0.7,7.6 -3.9,10 -3.7,2.8 -7.4,6.2 -10.9,9.2 -7.8,6.7 -15.6,13.4 -23.4,20.1 z m 83.8,-56.1 h 1.2 c 3.5,0 5.9,2.4 5.9,5.9 0,4.8 -4.7,6.1 -8.7,6.1 -5.3,0 -10.4,3.2 -14,6.7 -4.6,4.5 -6.5,10.2 -6.5,16.4 v 28.3 c 0,3.3 -2,5.9 -5.4,5.9 h -0.9 c -3.4,0 -5.4,-2.6 -5.4,-5.9 v -30 c 0,-11.5 5.6,-20.9 15.1,-27.5 5.4,-3.8 11.9,-5.9 18.7,-5.9 z m -147,20.1 c 4.6,-4.6 9.2,-9.1 13.8,-13.6 1.3,-1.2 6.2,-6.5 8.1,-6.5 h 2.1 l 0.2,0.1 c 2.7,0.6 4.7,2.2 4.7,5.1 V 69 c 0,2 -2.3,4.2 -3.6,5.6 -2.7,2.8 -5.6,5.6 -8.3,8.4 l -14.3,14.4 c 6.1,6.1 12.3,12.2 18.4,18.4 1.7,1.7 3.4,3.4 5,5.1 0.6,0.6 1.5,1.4 1.9,2.2 0.5,0.8 0.9,1.7 0.9,2.7 v 1.2 l -0.1,0.3 c -0.7,2.7 -2.4,4.8 -5.4,4.8 h -0.9 c -2,0 -4.2,-2.2 -5.5,-3.4 -2.8,-2.6 -5.4,-5.3 -8.1,-7.9 l -9.1,-8.8 v 14.1 c 0,3.2 -2.1,5.9 -5.4,5.9 h -0.9 c -3.4,0 -5.4,-2.6 -5.4,-5.9 V 46.5 c 0,-3.2 2,-5.8 5.4,-5.8 h 0.9 c 3.4,0 5.4,2.6 5.4,5.8 v 36.3 z m -38.3,-7.9 c -1.8,-0.8 -5.1,-1.1 -7,-1.2 -9.9,-0.4 -17,5.1 -21.2,13.8 -1.4,3 -2.1,6.1 -2.1,9.4 0,10 5.3,17 14.3,21.3 3.3,1.6 7.5,1.9 11.1,1.9 3.2,0 7.6,-1.9 10.5,-3.2 l 0.5,-0.2 h 2.2 l 0.2,0 c 2.7,0.6 4.7,2.2 4.7,5.1 v 1.2 c 0,7.1 -13.1,8.8 -18.1,9.1 -17.7,1.2 -30.9,-8.4 -35.9,-25.1 -0.9,-2.9 -1.3,-5.8 -1.3,-8.8 v -2.3 c 0,-12.7 6.3,-22.7 17.3,-29.2 5.1,-3 10.8,-4.5 16.7,-4.5 h 2.3 c 6.3,0 12.1,1.8 17.3,5.3 l 0.4,0.3 0.3,0.4 c 0.6,0.9 1,2 1,3.1 v 1.2 c 0,3 -2.3,4.6 -5,5.1 l -0.2,0 h -0.7 c -1.7,-0.2 -5.7,-2 -7.3,-2.7 z M 384.9,97.1 c 0,8.9 4.4,15.4 12,20 3.6,2.2 7.5,3.1 11.6,3.1 8.9,0 15.4,-4.5 20,-11.9 2.2,-3.5 3.2,-7.4 3.2,-11.5 0,-8.3 -4,-14.6 -10.9,-19.2 -3.8,-2.5 -8,-3.8 -12.5,-3.8 -9.9,0 -17,5 -21.3,13.8 -1.4,3.1 -2.1,6.2 -2.1,9.5 z m 22.2,-34.9 h 1.6 c 13.7,0 24.1,6.6 30.7,18.4 2.6,4.7 4,9.9 4,15.3 v 2.3 c 0,12.7 -6.3,22.8 -17.3,29.2 -5.1,3 -10.8,4.5 -16.7,4.5 h -2.3 c -12.8,0 -23,-6.3 -29.5,-17.2 -3,-5.1 -4.5,-10.7 -4.5,-16.5 V 96 c 0,-12.7 6.3,-22.7 17.3,-29.2 5.1,-3.1 10.8,-4.6 16.7,-4.6 z m -99.5,34.9 c 0,9.2 4.5,16.1 12.6,20.4 3.3,1.8 6.8,2.7 10.6,2.7 9.1,0 15.8,-4.2 20.4,-11.9 2.2,-3.5 3.2,-7.4 3.2,-11.5 0,-7.9 -3.8,-14.1 -10.2,-18.7 -3.9,-2.8 -8.3,-4.2 -13.1,-4.2 -9.9,0 -17,5 -21.3,13.8 -1.5,3 -2.2,6.1 -2.2,9.4 z M 354.4,71 V 46.3 c 0,-3.2 2,-5.9 5.4,-5.9 h 0.9 c 3.4,0 5.4,2.6 5.4,5.9 v 52 c 0,12.7 -6.3,22.8 -17.3,29.2 -5.1,3 -10.8,4.5 -16.7,4.5 h -2.3 c -12.8,0 -23,-6.3 -29.5,-17.2 -3,-5.1 -4.5,-10.7 -4.5,-16.5 V 96 c 0,-12.7 6.3,-22.8 17.3,-29.2 5.1,-3 10.7,-4.5 16.7,-4.5 h 2.3 c 8.7,-0.1 16.1,3.3 22.3,8.7 z"
         class="st0"
         inkscape:connector-curvature="0"
         style="fill:#3a4e55;fill-rule:evenodd" />
    </g>
    <text
       xml:space="preserve"
       style="font-size:22.77350998px;font-style:normal;font-weight:normal;line-height:125%;letter-spacing:0px;word-spacing:0px;fill:#000000;fill-opacity:1;stroke:none;font-family:Sans"
       x="-13.549363"
       y="31.0296"
       id="text3245-3"
       sodipodi:linespacing="125%"><tspan
         sodipodi:role="line"
         id="tspan3247-6"
         x="-13.549363"
         y="31.0296"
         style="font-style:normal;font-variant:normal;font-weight:normal;font-stretch:normal;font-family:DejaVu Sans;-inkscape-font-specification:DejaVu Sans;fill:#333333;fill-opacity:1">+</tspan></text>
  </g>
  <style
     id="style3591"
     type="text/css">
	.st0{fill-rule:evenodd;clip-rule:evenodd;fill:#3A4E55;}
	.st1{fill:#08AADA;}
	.st2{fill:#2BB8EB;}
	.st3{fill:#088CB9;}
	.st4{fill:#069BC6;}
	.st5{fill-rule:evenodd;clip-rule:evenodd;fill:#00ACD2;}
	.st6{fill-rule:evenodd;clip-rule:evenodd;fill:#26C2EE;}
	.st7{fill-rule:evenodd;clip-rule:evenodd;fill:#D4EDF1;}
	.st8{fill:#C0DBE0;}
	.st9{fill:#D4EDF1;}
</style>
</svg>
